<?xml version="1.0" standalone="no"?><!DOCTYPE svg PUBLIC "-//W3C//DTD SVG 1.1//EN" "http://www.w3.org/Graphics/SVG/1.1/DTD/svg11.dtd"><svg t="1731911696108" class="icon" viewBox="0 0 1024 1024" version="1.1" xmlns="http://www.w3.org/2000/svg" p-id="1575" xmlns:xlink="http://www.w3.org/1999/xlink" width="200" height="200"><path d="M256 416m0 0l544 0q0 0 0 0l0 288q0 0 0 0l-544 0q0 0 0 0l0-288q0 0 0 0Z" fill="#FFFFFF" p-id="1576"></path><path d="M320 96m0 0l384 0q0 0 0 0l0 96q0 0 0 0l-384 0q0 0 0 0l0-96q0 0 0 0Z" fill="#FCC300" p-id="1577"></path><path d="M627.84 32a110.933333 110.933333 0 0 1 104.277333 73.088h106.368c49.322667 0 89.301333 39.936 89.301334 89.173333V902.826667c0 49.28-39.978667 89.216-89.301334 89.216H185.301333a89.258667 89.258667 0 0 1-89.301333-89.173334V194.218667c0-49.237333 39.978667-89.173333 89.301333-89.173334h106.368A110.933333 110.933333 0 0 1 395.946667 32h231.893333zM479.146667 603.946667H330.410667a32.768 32.768 0 0 0-0.554667 65.536h149.290667a32.768 32.768 0 0 0 0-65.536z m214.229333-158.72H330.410667a32.768 32.768 0 0 0-0.554667 65.493333h363.52a32.768 32.768 0 0 0 0-65.493333z m-65.536-347.733334H395.946667a45.354667 45.354667 0 1 0 0 90.709334h231.893333a45.354667 45.354667 0 1 0 0-90.709334z" fill="#1F64C0" p-id="1578"></path></svg>